# xmcd CD database file
#
# Track frame offsets:
#	150
#	16577
#	33315
#	47835
#	65627
#	85430
#	100997
#	119287
#	137085
#	157147
#
# Disc length: 2304 seconds
#
# Revision: 0
# Processed by: cddbd v1.5.1PL0 Copyright (c) Steve Scherf et al.
# Submitted via: CDex 1.51
#
DISCID=8408fe0a
DTITLE=上田ケンジ - アンビヴァレンス
DYEAR=2002
DGENRE=Rock
TTITLE0=ムーニームーン
TTITLE1=ランプ
TTITLE2=春風ギター
TTITLE3=ナイトメア
TTITLE4=窓辺
TTITLE5=ラストダンス
TTITLE6=涙も枯れて
TTITLE7=灰色フランネル
TTITLE8=サンサーラ
TTITLE9=ムーニームーン(reprise)
EXTD=YEAR: 2002
EXTT0=
EXTT1=
EXTT2=
EXTT3=
EXTT4=
EXTT5=
EXTT6=
EXTT7=
EXTT8=
EXTT9=
PLAYORDER=
